<svg xmlns="http://www.w3.org/2000/svg" width="512" height="512" viewBox="0 0 512 512">
  <!-- 魏紫背景（圆角方形） -->
  <rect width="512" height="512" rx="64" fill="#ffffff"/>

  <!-- 仪字（魏紫，居中缩放） -->
  <g transform="translate(56, 476) scale(0.077, -0.077)" fill="#442041" stroke="none">
    <path d="M3518 4682 c-47 -48 -48 -50 -48 -111 0 -44 -4 -63 -14 -67 -8 -3
-14 -20 -14 -42 0 -21 -6 -41 -16 -48 -9 -6 -16 -16 -16 -23 0 -6 -5 -11 -11
-11 -7 0 -22 -11 -35 -25 -13 -14 -28 -25 -34 -25 -5 0 -10 -11 -10 -25 0 -30
-30 -62 -62 -67 -14 -2 -24 -11 -26 -23 -5 -32 -24 -65 -38 -65 -7 0 -15 -13
-19 -30 -5 -23 -12 -30 -31 -30 -14 0 -24 -6 -24 -14 0 -8 -7 -21 -15 -29 -10
-11 -12 -23 -6 -45 8 -25 6 -30 -5 -25 -8 3 -14 9 -14 14 0 5 -4 9 -10 9 -5 0
-10 -7 -10 -15 0 -10 -10 -15 -29 -15 -22 0 -30 -6 -35 -25 -4 -14 -11 -25
-16 -25 -6 0 -10 -7 -10 -15 0 -9 -9 -15 -21 -15 -12 0 -39 -17 -60 -39 -22
-21 -39 -48 -39 -60 0 -12 -6 -21 -15 -21 -8 0 -15 -7 -15 -15 0 -8 -5 -15
-11 -15 -6 0 -22 -13 -36 -30 -17 -21 -34 -30 -54 -30 -22 0 -44 -16 -99 -70
-52 -52 -79 -71 -107 -76 -52 -10 -69 -30 -72 -89 -2 -30 -8 -53 -17 -58 -22
-12 -17 -39 13 -65 25 -21 35 -23 141 -21 95 1 116 -1 132 -16 18 -16 20 -17
20 -2 0 13 9 17 33 17 19 0 48 7 65 16 18 8 42 14 54 12 19 -2 24 -10 26 -41
2 -26 -1 -39 -12 -43 -9 -3 -16 -12 -16 -19 0 -7 -7 -15 -15 -19 -8 -3 -15
-15 -15 -26 0 -11 -7 -23 -15 -26 -8 -4 -15 -12 -15 -20 0 -8 -10 -14 -25 -14
-14 0 -26 -4 -26 -10 -1 -5 -2 -14 -3 -19 0 -5 -13 -21 -28 -35 -16 -14 -28
-34 -28 -46 0 -11 -7 -23 -15 -26 -10 -4 -15 -20 -15 -46 0 -27 -6 -45 -17
-54 -15 -11 -16 -16 -5 -31 7 -10 15 -26 19 -36 5 -16 13 -18 53 -12 36 5 49
3 59 -9 8 -9 28 -16 45 -16 48 0 76 -35 76 -94 0 -37 -5 -52 -25 -70 -14 -13
-25 -30 -25 -39 0 -8 -12 -28 -27 -44 -16 -16 -38 -47 -49 -68 -16 -29 -29
-41 -48 -43 -23 -3 -26 -8 -26 -43 0 -36 -3 -40 -29 -45 -27 -6 -30 -11 -33
-47 -2 -33 -8 -42 -25 -47 -12 -3 -72 -52 -132 -110 -110 -103 -111 -105 -111
-150 0 -65 9 -90 32 -90 11 0 31 -13 45 -30 14 -17 34 -30 48 -30 12 0 25 -7
29 -15 7 -20 72 -20 80 0 8 21 114 21 122 0 4 -8 14 -15 25 -15 10 0 44 -25
76 -55 35 -33 67 -55 81 -55 21 0 27 -13 23 -47 -3 -20 41 -73 60 -73 24 0 32
-16 31 -61 -1 -27 4 -44 18 -57 21 -20 18 -57 -6 -66 -21 -8 -18 -73 4 -85 16
-9 16 -11 -3 -25 l-20 -15 20 -15 c19 -15 19 -17 3 -27 -10 -5 -18 -19 -18
-29 0 -26 -32 -57 -62 -62 -13 -2 -23 -10 -23 -18 0 -11 -13 -16 -50 -18 -27
-1 -61 -8 -74 -15 -19 -9 -25 -9 -28 1 -3 6 -18 12 -34 12 -19 0 -29 5 -29 15
0 8 -4 15 -9 15 -5 0 -11 -7 -15 -15 -3 -8 -16 -15 -30 -15 -13 0 -26 7 -30
15 -3 8 -14 15 -24 15 -10 0 -29 13 -42 30 -14 16 -31 29 -37 30 -7 0 -13 7
-13 15 0 8 -6 15 -14 15 -8 0 -16 7 -19 14 -4 10 -24 16 -59 18 l-53 3 -3 58
c-2 34 1 57 7 57 13 0 81 67 81 80 0 6 11 10 24 10 13 0 29 7 36 15 7 8 27 15
44 15 18 0 38 6 44 12 10 10 17 10 32 0 12 -7 20 -8 20 -2 0 5 12 13 27 16 15
4 33 12 40 18 33 29 43 36 53 36 5 0 10 -4 10 -10 0 -19 36 -10 59 14 34 36
25 61 -22 61 -24 1 -37 -4 -37 -12 0 -16 -86 -18 -95 -3 -3 6 -11 10 -16 10
-6 0 -8 -4 -5 -9 8 -13 -76 -22 -142 -15 -49 5 -64 3 -106 -20 -27 -14 -55
-31 -62 -37 -8 -6 -23 -9 -34 -6 -11 3 -26 -1 -34 -8 -7 -8 -25 -17 -40 -21
-14 -3 -26 -10 -26 -15 0 -13 -58 -11 -62 2 -5 15 -213 16 -230 1 -7 -5 -22
-11 -33 -14 -13 -2 -21 -13 -23 -31 -2 -16 -10 -31 -18 -34 -8 -3 -14 -16 -14
-29 0 -18 5 -24 23 -24 13 0 33 -13 47 -30 20 -23 33 -29 63 -30 24 0 40 -5
43 -15 4 -10 20 -15 44 -15 21 0 40 -5 42 -11 2 -6 31 -10 73 -10 107 1 135
-6 135 -35 0 -14 7 -27 15 -30 10 -4 15 -20 15 -44 0 -41 21 -66 60 -72 19 -2
26 -10 28 -30 3 -25 8 -28 38 -28 22 0 37 -6 40 -15 4 -8 17 -15 29 -15 13 0
30 -7 39 -15 8 -8 21 -15 29 -15 8 0 20 -7 27 -15 7 -8 23 -15 36 -15 13 0 24
-5 24 -11 0 -24 45 -48 92 -49 34 0 50 -5 57 -17 8 -15 12 -14 37 15 20 22 37
32 59 32 30 1 75 29 75 48 0 6 12 12 28 14 20 2 28 9 30 26 4 30 36 62 61 62
10 0 21 7 25 15 3 8 14 15 26 15 30 0 60 31 60 61 0 15 7 29 15 33 8 3 15 14
15 25 0 10 7 22 15 25 9 3 15 11 14 18 -1 7 -1 39 0 71 1 42 5 57 15 57 12 0
15 17 15 82 0 63 4 85 16 94 11 8 15 29 15 72 l0 60 -64 62 c-43 41 -63 67
-59 77 4 9 -1 19 -10 25 -11 6 -17 22 -17 48 0 38 -2 40 -30 40 -20 0 -30 5
-30 15 0 9 -9 15 -24 15 -14 0 -32 12 -46 30 -14 19 -32 30 -47 30 -13 0 -26
7 -29 15 -4 10 -20 15 -44 15 -24 0 -40 5 -44 15 -3 10 -19 15 -43 15 -29 1
-42 7 -56 26 -18 24 -18 25 5 44 13 11 26 19 29 20 4 0 16 20 28 45 12 25 25
45 30 45 5 0 11 12 13 28 2 16 9 27 18 27 20 1 60 36 60 54 0 8 15 29 33 47
70 72 87 93 87 108 0 18 29 35 48 29 7 -3 12 4 12 19 0 14 13 35 31 51 22 19
30 33 26 47 -4 15 0 20 14 20 10 0 19 7 19 15 0 8 5 15 10 15 6 0 10 7 10 15
0 8 6 15 14 15 19 0 27 26 20 58 -10 42 -33 62 -71 62 -21 0 -36 6 -39 15 -4
8 -12 15 -20 15 -8 0 -14 6 -14 14 0 8 -6 16 -14 19 -8 3 -16 16 -18 29 -2 17
-11 24 -30 26 l-28 3 0 100 c0 81 3 99 15 99 8 0 15 7 15 15 0 8 6 15 14 15 9
0 16 12 18 28 2 21 9 28 31 30 15 2 27 9 27 18 0 8 7 14 15 14 10 0 15 10 15
29 0 16 6 31 15 35 23 8 20 98 -3 119 -13 12 -17 28 -15 62 2 43 1 45 -25 47
-15 0 -33 2 -41 2 -8 1 -16 7 -19 14 -2 7 -23 12 -57 12 -41 0 -56 4 -64 17
-9 17 -10 17 -28 0 -11 -9 -27 -17 -35 -17 -9 0 -18 -7 -22 -15 -7 -18 -71
-20 -83 -2 -13 21 -12 38 3 44 8 3 14 11 14 19 0 8 4 14 10 14 12 0 110 98
110 110 0 6 6 10 13 10 7 0 18 9 25 20 9 15 19 18 40 14 24 -5 34 1 70 40 23
25 44 46 47 46 12 0 121 124 125 143 4 15 15 23 33 25 16 2 31 10 34 18 3 8
13 14 23 14 27 0 96 68 92 90 -3 20 25 40 46 33 7 -3 12 4 12 19 0 22 80 116
101 119 5 1 14 3 19 4 6 1 15 3 21 4 5 0 7 6 4 11 -3 6 4 10 16 10 12 0 31 7
41 16 14 14 20 14 33 4 17 -14 23 -10 82 48 57 56 35 139 -36 134 -20 -1 -38
9 -69 40 -23 22 -42 49 -42 60 0 16 -9 18 -92 18 l-93 0 -47 -48z m-918 -2572
c0 -5 -9 -10 -21 -10 -11 0 -17 5 -14 10 3 6 13 10 21 10 8 0 14 -4 14 -10z"/>
    <path d="M2210 4211 c0 -29 6 -53 14 -60 8 -7 14 -27 14 -46 0 -25 8 -41 29
-61 15 -14 27 -33 25 -41 -2 -8 6 -24 17 -34 11 -11 18 -26 15 -34 -4 -11 0
-15 16 -15 26 0 70 -38 70 -62 0 -9 10 -20 23 -24 12 -3 41 -26 64 -50 39 -40
47 -44 93 -44 38 0 50 4 50 15 0 8 7 15 15 15 8 0 15 6 15 14 0 8 7 16 15 20
8 3 14 11 13 18 -2 8 5 12 17 10 28 -3 75 45 56 57 -7 5 -13 25 -14 45 -1 20
-6 36 -11 36 -6 1 -22 14 -36 30 -13 17 -31 30 -40 30 -9 0 -30 13 -46 30 -16
16 -39 30 -50 30 -12 0 -24 7 -28 15 -3 8 -14 15 -24 15 -11 0 -25 6 -32 14
-6 8 -17 13 -24 10 -8 -3 -20 2 -29 10 -9 9 -23 16 -31 16 -9 0 -25 9 -36 20
-11 11 -29 20 -41 20 -11 0 -17 5 -14 10 3 6 -3 10 -14 10 -11 0 -26 7 -35 15
-8 8 -24 15 -35 15 -18 0 -21 -6 -21 -49z"/>
    <path d="M1274 4106 c-6 -15 -9 -108 -5 -163 0 -13 7 -23 15 -23 19 0 18 -60
-1 -67 -8 -3 -13 -21 -13 -43 0 -24 -5 -40 -14 -43 -8 -3 -16 -16 -18 -28 -2
-15 -12 -25 -28 -29 -18 -4 -26 -13 -28 -33 -2 -15 -10 -27 -18 -27 -8 0 -14
-10 -14 -25 0 -14 -7 -28 -15 -31 -10 -4 -15 -19 -15 -43 0 -29 -7 -42 -30
-61 -16 -14 -29 -33 -30 -43 0 -10 -7 -25 -15 -34 -8 -8 -12 -19 -9 -25 3 -5
-3 -18 -15 -29 -12 -11 -21 -28 -21 -39 0 -10 -4 -22 -10 -25 -5 -3 -10 -15
-10 -26 0 -11 -7 -22 -15 -25 -8 -4 -15 -11 -15 -18 0 -6 -14 -20 -30 -31 -30
-20 -35 -31 -31 -71 1 -12 -5 -27 -14 -34 -8 -7 -15 -20 -15 -29 0 -9 -13 -28
-30 -41 -22 -19 -29 -33 -30 -62 0 -21 -4 -38 -9 -38 -18 0 -21 -45 -3 -58 16
-13 16 -14 0 -26 -10 -7 -18 -18 -18 -25 0 -6 -11 -11 -24 -11 -18 0 -27 -8
-35 -30 -5 -16 -15 -30 -20 -30 -6 0 -11 -6 -11 -13 0 -7 -13 -23 -30 -37 -16
-14 -30 -33 -30 -42 0 -26 -31 -58 -57 -58 -16 0 -23 -6 -23 -20 0 -10 -6 -23
-14 -27 -12 -7 -20 -44 -17 -80 2 -23 37 -14 66 17 16 17 39 30 52 30 16 0 23
6 23 20 0 12 7 32 16 46 9 13 14 27 11 30 -6 7 29 44 42 44 5 0 12 14 16 30 6
29 8 30 67 30 l61 0 59 60 c40 42 66 60 83 60 16 0 25 6 25 15 0 8 6 15 13 15
6 0 21 14 32 30 11 16 28 30 39 30 10 0 55 38 101 85 45 47 87 85 94 85 6 0
11 11 11 25 0 22 30 65 45 65 12 0 45 42 45 58 0 9 27 46 61 81 46 50 59 70
55 87 -4 13 2 31 12 45 10 13 24 36 31 52 8 15 19 27 24 27 12 0 46 42 47 58
0 8 20 33 45 58 25 24 45 53 45 64 0 11 7 23 15 26 10 4 15 20 15 44 0 21 -7
43 -15 50 -8 7 -15 21 -15 32 0 10 -7 21 -15 24 -8 4 -15 15 -15 25 0 27 -35
59 -65 59 -14 0 -25 4 -25 9 0 5 -13 12 -30 16 -16 4 -30 11 -30 16 0 27 -32
45 -79 43 -37 -2 -53 2 -66 17 -10 10 -22 16 -28 12 -5 -3 -15 1 -22 10 -18
25 -73 34 -81 13z"/>
    <path d="M1120 2816 c0 -8 -7 -16 -15 -20 -12 -4 -15 -27 -15 -114 0 -73 -4
-112 -12 -121 -10 -11 -10 -14 0 -18 14 -6 16 -30 2 -35 -6 -2 -11 -81 -13
-201 -3 -160 -1 -200 10 -204 16 -6 17 -21 1 -37 -10 -9 -13 -72 -11 -253 1
-200 -1 -242 -13 -247 -11 -4 -14 -46 -14 -236 0 -196 -2 -231 -15 -236 -21
-8 -21 -82 0 -90 12 -5 15 -26 15 -100 0 -81 3 -97 20 -114 23 -23 72 -26 89
-6 16 19 71 18 93 -1 14 -13 17 -12 26 4 10 17 11 17 29 1 18 -17 20 -16 36 2
21 25 25 148 5 155 -9 4 -14 40 -16 120 -3 100 -2 115 12 115 16 0 19 20 19
152 0 31 4 49 13 52 8 3 14 14 14 25 0 11 6 26 14 34 11 11 15 42 15 123 1 86
4 111 16 120 10 8 15 28 15 63 0 39 4 51 15 51 22 0 19 52 -6 84 -20 26 -45
27 -35 1 3 -8 -1 -19 -9 -25 -9 -7 -15 -37 -17 -78 l-3 -67 -30 0 -30 0 -2
115 c-1 69 -6 116 -13 118 -14 5 -13 29 3 35 9 3 7 9 -5 24 -14 16 -18 38 -18
110 0 50 -4 93 -9 95 -6 2 -12 31 -14 65 -2 34 -8 68 -14 75 -22 28 -22 58 0
69 20 11 20 12 1 26 -17 12 -19 28 -21 134 -1 93 -5 123 -17 135 -10 10 -16
33 -16 65 l0 49 -40 0 c-28 0 -40 -4 -40 -14z"/>
    <path d="M3670 1755 c-8 -10 -30 -15 -61 -15 -37 0 -49 -4 -49 -15 0 -8 -4
-15 -10 -15 -5 0 -10 -4 -10 -10 0 -5 16 -10 35 -10 22 0 38 -6 41 -15 9 -21
80 -20 88 1 6 16 8 16 24 0 10 -9 26 -16 36 -16 10 0 24 -7 33 -15 11 -11 30
-15 62 -13 45 3 46 4 49 41 2 27 -1 37 -11 37 -8 0 -17 7 -21 15 -4 10 -20 15
-50 15 -26 0 -51 6 -60 15 -8 8 -30 15 -49 15 -19 0 -40 -7 -47 -15z"/>
    <path d="M4026 1725 c-3 -8 -16 -15 -29 -15 -19 0 -24 -5 -24 -25 0 -15 5 -25
13 -25 10 0 14 -15 14 -54 0 -35 5 -58 15 -66 11 -10 15 -36 15 -110 0 -78 -3
-99 -15 -104 -9 -3 -15 -19 -15 -41 0 -22 -6 -38 -15 -41 -9 -4 -15 -19 -15
-35 0 -27 -3 -29 -38 -29 -29 0 -43 7 -65 31 l-26 30 -33 -30 c-18 -17 -41
-31 -50 -31 -10 0 -18 -4 -18 -10 0 -5 -7 -10 -15 -10 -8 0 -15 -7 -15 -15 0
-10 10 -15 34 -15 18 0 39 -7 46 -15 16 -19 47 -19 57 -1 5 10 29 15 71 17 53
2 65 -1 87 -21 14 -13 25 -31 25 -41 0 -23 16 -33 24 -14 3 8 15 15 26 15 21
0 60 33 60 50 0 6 11 10 25 10 14 0 28 7 31 15 4 8 18 15 34 15 16 0 30 -7 34
-15 3 -8 15 -15 26 -15 11 0 23 7 26 15 10 25 31 17 38 -15 6 -34 39 -42 55
-13 9 17 10 17 28 0 11 -9 34 -17 51 -17 27 0 32 4 32 23 0 29 68 97 98 97 13
0 22 6 22 15 0 8 7 15 15 15 8 0 15 4 15 9 0 5 -7 11 -15 15 -9 3 -15 18 -15
40 0 26 -7 40 -30 59 -16 14 -30 35 -30 47 0 26 -61 90 -86 90 -10 0 -44 27
-74 60 -48 52 -60 60 -91 60 -24 0 -39 5 -43 15 -4 12 -23 15 -85 15 -76 0
-82 2 -111 30 -16 16 -30 34 -30 40 0 16 -27 12 -34 -5z"/>
    <path d="M3408 886 c-18 -13 -25 -46 -10 -46 16 1 39 26 39 43 0 20 -6 21 -29
3z"/>
  </g>
</svg>
